 <svg  version="1.0" xmlns="http://www.w3.org/2000/svg"  width="300.000000pt" height="300.000000pt" viewBox="0 0 300.000000 300.000000"  preserveAspectRatio="xMidYMid meet">  <g transform="translate(0.000000,300.000000) scale(0.050000,-0.050000)" fill="#000664" stroke="none"> <path d="M1585 4252 c-791 -258 -722 -1364 95 -1521 265 -50 300 -75 300 -211 0 -85 -57 -299 -103 -385 -45 -86 44 -23 203 141 661 684 674 1696 26 1945 -145 56 -399 71 -521 31z"/> <path d="M3797 4262 c-367 -119 -567 -387 -567 -762 0 -413 227 -683 647 -771 315 -65 364 -160 242 -463 -68 -172 -66 -188 19 -128 463 330 775 1233 577 1667 -155 339 -600 560 -918 457z"/> </g> </svg> 