<?xml version="1.0" standalone="no"?>
<!DOCTYPE svg PUBLIC "-//W3C//DTD SVG 20010904//EN"
 "http://www.w3.org/TR/2001/REC-SVG-20010904/DTD/svg10.dtd">
<svg version="1.0" xmlns="http://www.w3.org/2000/svg"
 width="258.000000pt" height="300.000000pt" viewBox="0 0 258.000000 300.000000"
 preserveAspectRatio="xMidYMid meet">
<metadata>
Created by potrace 1.10, written by Peter Selinger 2001-2011
</metadata>
<g transform="translate(0.000000,300.000000) scale(0.100000,-0.100000)"
fill="#000877" stroke="none">
<path d="M453 2883 c-18 -2 -33 -8 -33 -14 0 -5 -7 -9 -16 -9 -20 0 -104 -84
-104 -104 0 -9 -4 -16 -10 -16 -5 0 -10 -9 -10 -20 0 -11 -4 -20 -10 -20 -14
0 -14 -996 0 -1005 5 -3 10 -17 10 -31 0 -13 6 -24 13 -24 8 0 19 -11 25 -24
6 -14 31 -39 56 -58 41 -30 61 -68 36 -68 -5 0 -10 -6 -10 -12 0 -7 -14 -21
-30 -30 -17 -10 -38 -31 -48 -48 -9 -16 -22 -30 -27 -30 -30 0 -35 -82 -35
-565 0 -495 1 -503 37 -543 7 -7 13 -17 13 -21 0 -15 77 -91 93 -91 9 0 17 -4
17 -9 0 -21 117 -24 865 -24 732 0 875 4 875 22 0 4 15 12 33 19 31 11 40 23
99 125 l28 48 0 479 c0 308 -4 481 -10 485 -5 3 -10 15 -10 26 0 10 -6 29 -12
42 -18 30 -79 92 -100 100 -35 13 -31 87 4 87 19 0 88 70 88 90 0 6 4 19 10
30 6 11 15 29 20 40 12 25 14 962 1 975 -4 6 -16 30 -25 55 -22 58 -53 93
-107 122 l-44 23 -825 1 c-454 1 -840 -1 -857 -3z"/>
</g>
</svg>
