<svg xmlns="http://www.w3.org/2000/svg" version="1.0" preserveAspectRatio="xMidYMid meet" viewBox="26.66 45.4 1289.42 69.6">  <g transform="translate(0.000000,324.000000) scale(0.100000,-0.100000)" fill="#010648" stroke="none"> <path d="M456 2783 c-34 -5 -92 -40 -123 -74 -81 -88 -89 -247 -18 -386 28 -57 120 -140 192 -174 58 -28 82 -34 160 -37 67 -3 106 0 141 11 47 16 51 16 117 -8 l68 -25 2254 0 2253 0 61 25 c99 40 155 84 333 259 153 151 176 170 255 209 73 35 97 42 162 45 66 3 82 1 126 -22 158 -80 190 -276 66 -401 -81 -80 -182 -93 -266 -33 -73 52 -78 179 -9 224 53 35 123 13 163 -52 27 -44 49 -45 49 -1 0 49 -57 104 -117 113 -115 17 -184 -37 -191 -151 -9 -135 74 -215 220 -215 62 0 80 4 124 30 57 32 94 71 127 134 33 63 31 193 -5 261 -88 168 -280 212 -478 111 -81 -41 -143 -92 -272 -224 -137 -141 -185 -181 -255 -217 -152 -76 -258 -71 -357 17 -61 53 -81 97 -81 178 0 119 74 224 180 254 50 15 60 15 107 1 152 -45 197 -179 91 -276 -55 -52 -100 -61 -153 -34 -20 10 -33 28 -41 54 -10 35 -9 43 11 75 23 38 21 66 -5 66 -26 0 -55 -60 -55 -115 0 -94 44 -138 137 -138 71 0 108 18 161 78 45 51 58 99 47 167 -12 66 -45 110 -113 146 -51 27 -70 32 -128 32 -84 0 -136 -22 -194 -80 -114 -114 -129 -291 -35 -414 19 -26 35 -51 35 -56 0 -13 -4130 -14 -4180 -1 -19 5 -47 12 -61 15 -34 7 -44 32 -24 62 9 14 15 47 15 85 0 55 -3 64 -30 89 -53 49 -111 48 -160 -5 -34 -36 -35 -116 -2 -162 28 -40 28 -51 -4 -63 -59 -23 -180 2 -261 53 -56 35 -121 111 -149 172 -25 55 -34 157 -18 207 23 75 109 148 174 148 42 0 108 -38 126 -72 38 -73 -6 -160 -81 -160 -49 0 -75 28 -75 83 0 46 -24 54 -42 13 -9 -20 -9 -34 3 -66 37 -105 160 -113 233 -14 30 40 29 139 -2 183 -42 59 -123 89 -206 76z m438 -445 c21 -30 20 -56 -4 -95 -24 -40 -51 -42 -79 -6 -42 52 -36 114 11 132 27 10 51 0 72 -31z"/> <path d="M12875 2783 c-75 -11 -135 -89 -135 -174 0 -76 38 -130 103 -148 40 -12 50 -11 89 7 44 19 78 66 78 107 0 29 -20 55 -42 55 -17 0 -20 -4 -14 -30 13 -67 -44 -113 -109 -86 -43 18 -72 86 -55 131 15 41 38 64 79 81 72 30 127 11 195 -70 l41 -48 0 -97 c-1 -106 -13 -140 -79 -217 -86 -101 -252 -165 -353 -138 -28 8 -30 36 -4 72 33 46 31 118 -4 160 -67 80 -196 21 -195 -90 1 -23 7 -54 15 -68 30 -52 21 -66 -50 -84 -58 -14 -258 -16 -2125 -16 -1133 0 -2060 3 -2060 8 0 4 17 31 39 59 116 155 59 382 -118 472 -97 50 -250 12 -318 -78 -30 -39 -33 -49 -33 -116 0 -68 3 -77 33 -117 42 -55 86 -84 139 -92 111 -16 192 63 172 169 -7 41 -39 85 -60 85 -25 0 -27 -28 -5 -56 47 -60 4 -154 -71 -154 -65 0 -147 69 -165 138 -9 38 16 104 53 139 20 18 57 38 90 48 51 15 60 15 111 0 66 -19 131 -79 162 -150 26 -58 28 -152 5 -201 -26 -54 -99 -120 -154 -138 -60 -20 -93 -20 -166 -1 -106 27 -179 78 -324 224 -154 156 -211 205 -291 250 -257 144 -523 20 -522 -243 1 -64 5 -82 34 -136 54 -102 133 -150 247 -150 87 0 137 21 179 77 26 34 28 43 28 124 0 86 -1 89 -34 123 -38 39 -86 52 -153 41 -57 -10 -121 -71 -116 -111 5 -41 25 -40 49 1 50 84 162 87 205 4 18 -35 18 -70 0 -113 -19 -46 -51 -73 -108 -92 -74 -24 -137 -5 -204 61 -108 107 -110 232 -7 346 50 55 107 79 187 79 127 0 245 -69 411 -242 171 -177 251 -238 366 -281 42 -16 191 -17 2285 -17 l2239 0 67 24 c64 23 71 23 115 9 34 -10 77 -13 143 -10 82 3 104 8 161 37 224 109 310 381 176 553 -47 61 -135 93 -222 80z m-245 -433 c11 -11 20 -30 20 -42 0 -28 -39 -86 -64 -94 -27 -9 -57 26 -63 73 -4 33 -1 45 16 62 26 26 65 27 91 1z"/> </g> </svg>